HIERARCHY
ROOT root
{
	OFFSET 0.000000 0.000000 0.000000
	CHANNELS 6 Xposition Yposition Zposition Zrotation Yrotation Xrotation
	JOINT lhip
	{
		OFFSET 0.058581 -0.082280 -0.017664
		CHANNELS 3 Zrotation Yrotation Xrotation
		JOINT lknee
		{
			OFFSET 0.043451 -0.386469 0.008037
			CHANNELS 3 Zrotation Yrotation Xrotation
			JOINT lankle
			{
				OFFSET -0.014790 -0.426874 -0.037428
				CHANNELS 3 Zrotation Yrotation Xrotation
				JOINT ltoe
				{
					OFFSET 0.041054 -0.060286 0.122042
					CHANNELS 3 Zrotation Yrotation Xrotation
					End Site
					{
						OFFSET 0.000000 0.000000 0.000000
					}
				}
			}
		}
	}
	JOINT rhip
	{
		OFFSET -0.060310 -0.090513 -0.013543
		CHANNELS 3 Zrotation Yrotation Xrotation
		JOINT rknee
		{
			OFFSET -0.043257 -0.383688 -0.004843
			CHANNELS 3 Zrotation Yrotation Xrotation
			JOINT rankle
			{
				OFFSET 0.019056 -0.420046 -0.034562
				CHANNELS 3 Zrotation Yrotation Xrotation
				JOINT rtoe
				{
					OFFSET -0.034840 -0.062106 0.130323
					CHANNELS 3 Zrotation Yrotation Xrotation
					End Site
					{
						OFFSET 0.000000 0.000000 0.000000
					}
				}
			}
		}
	}
	JOINT lowerback
	{
		OFFSET 0.004439 0.124404 -0.038385
		CHANNELS 3 Zrotation Yrotation Xrotation
		JOINT upperback
		{
			OFFSET 0.004488 0.137956 0.026820
			CHANNELS 3 Zrotation Yrotation Xrotation
			JOINT chest
			{
				OFFSET -0.002265 0.056032 0.002855
				CHANNELS 3 Zrotation Yrotation Xrotation
				JOINT lowerneck
				{
					OFFSET -0.013390 0.211636 -0.033468
					CHANNELS 3 Zrotation Yrotation Xrotation
					JOINT upperneck
					{
						OFFSET 0.010113 0.088937 0.050410
						CHANNELS 3 Zrotation Yrotation Xrotation
						End Site
						{
							OFFSET 0.000000 0.000000 0.000000
						}
					}
				}
				JOINT lclavicle
				{
					OFFSET 0.071702 0.114000 -0.018898
					CHANNELS 3 Zrotation Yrotation Xrotation
					JOINT lshoulder
					{
						OFFSET 0.122921 0.045205 -0.019046
						CHANNELS 3 Zrotation Yrotation Xrotation
						JOINT lelbow
						{
							OFFSET 0.255332 -0.015649 -0.022946
							CHANNELS 3 Zrotation Yrotation Xrotation
							JOINT lwrist
							{
								OFFSET 0.265709 0.012698 -0.007375
								CHANNELS 3 Zrotation Yrotation Xrotation
								End Site
								{
									OFFSET 0.000000 0.000000 0.000000
								}
							}
						}
					}
				}
				JOINT rclavicle
				{
					OFFSET -0.082954 0.112472 -0.023707
					CHANNELS 3 Zrotation Yrotation Xrotation
					JOINT rshoulder
					{
						OFFSET -0.113228 0.046853 -0.008472
						CHANNELS 3 Zrotation Yrotation Xrotation
						JOINT relbow
						{
							OFFSET -0.260127 -0.014369 -0.031269
							CHANNELS 3 Zrotation Yrotation Xrotation
							JOINT rwrist
							{
								OFFSET -0.269108 0.006794 -0.006027
								CHANNELS 3 Zrotation Yrotation Xrotation
								End Site
								{
									OFFSET 0.000000 0.000000 0.000000
								}
							}
						}
					}
				}
			}
		}
	}
}
MOTION
Frames: 11
Frame Time: 0.033333
-1.755786 0.237845 0.995069 96.598058 1.334330 87.867546 1.752561 1.957776 -0.353472 -0.907169 -10.423436 7.933822 5.076095 12.029269 -14.833805 0.000000 -0.000000 0.000000 2.292496 -2.363590 -3.762809 -0.065740 0.810157 14.142205 0.155427 -12.206899 -13.576777 0.000000 -0.000000 0.000000 4.322512 -5.712280 8.316915 0.690408 -5.937847 -7.526836 -1.216344 0.673838 0.150690 -3.212828 -12.499146 8.140514 4.951648 -0.175217 2.047583 -28.199830 8.147792 0.049526 -51.764738 1.277263 3.784375 0.681105 -37.485365 19.973527 -0.932862 4.357258 -0.696492 24.317602 3.413554 6.631176 58.299979 3.703180 9.386554 -9.791539 23.903826 5.603268 -19.110967 -2.134985 10.046020 
-1.754588 0.237535 0.992162 96.461749 0.403721 89.096009 0.726562 0.300222 -1.187000 -0.802030 -9.866896 7.152946 5.991221 13.539594 -13.767882 0.000000 -0.000000 0.000000 0.960151 -1.309942 -5.296629 0.365104 -0.116802 14.711383 0.748818 -12.241834 -14.050800 0.000000 -0.000000 0.000000 3.409202 -5.426891 6.835988 0.638674 -5.623776 -6.872131 -1.420736 0.710331 -0.207112 -2.649123 -12.227780 8.319709 4.982744 -1.376569 0.836104 -27.543680 8.754440 0.107378 -52.138735 0.841306 4.992513 1.235410 -37.916685 20.637563 -0.813403 4.607327 -3.313563 24.038667 2.673907 6.432196 59.174635 3.783309 10.923212 -10.407087 23.931285 6.557112 -18.603695 -3.226328 8.036588 
-1.752548 0.237359 0.991044 96.461800 0.236818 89.134290 0.599047 0.038821 -1.107100 -0.793229 -9.801507 7.120298 5.688942 13.673538 -13.729326 0.000000 -0.000000 0.000000 0.727185 -1.264075 -5.248605 0.405663 -0.314813 14.741193 0.999905 -12.092796 -14.159359 0.000000 -0.000000 0.000000 3.323378 -5.401364 6.871296 0.530851 -5.564420 -6.787473 -1.455725 0.758881 -0.305708 -2.425009 -12.161654 7.853503 4.995802 -1.881224 0.784098 -27.385635 8.933098 -0.141960 -52.371657 0.794386 5.113294 1.308702 -37.797845 20.548705 -0.812333 4.455580 -3.423405 23.852624 2.496794 6.172619 59.701174 3.796246 11.209384 -10.466687 23.887520 6.701579 -18.653277 -3.223604 8.146528 
-1.749918 0.237202 0.990875 96.422780 0.168723 89.140970 0.561137 0.080351 -0.911354 -0.769863 -9.825325 7.094452 5.710723 13.685739 -13.811040 0.000000 -0.000000 0.000000 0.680134 -1.400551 -5.068089 0.436027 -0.163428 14.666355 0.995398 -12.105571 -14.213992 0.000000 -0.000000 0.000000 3.446782 -5.599971 6.897868 0.473346 -5.790269 -6.961277 -1.539370 0.822127 -0.485861 -2.759711 -12.192538 7.970821 5.056605 -1.449456 0.635729 -27.536523 9.180337 -0.228552 -52.184735 1.341176 4.749432 1.072365 -37.600089 20.830063 -0.926166 4.429255 -3.495663 23.865029 2.780979 6.625842 60.094846 3.915406 11.144404 -10.625482 24.133557 6.660845 -18.657654 -2.993947 8.299738 
-1.748785 0.237213 0.990836 96.365945 0.153074 89.182471 0.545289 0.147006 -0.868023 -0.753169 -9.815279 7.106592 5.728676 13.695293 -13.865610 0.000000 -0.000000 0.000000 0.669217 -1.391435 -5.049737 0.450721 -0.114183 14.673473 0.998780 -12.114641 -14.247303 0.000000 -0.000000 0.000000 3.456745 -5.664895 6.878834 0.495597 -5.912358 -6.889187 -1.545474 0.802398 -0.681801 -2.947493 -12.213009 8.151956 5.142162 -1.237621 0.350490 -27.633198 9.258320 -0.255631 -52.088192 1.664005 4.606018 0.938048 -37.304277 20.953163 -1.020606 4.601415 -3.479803 23.919647 2.867581 6.797648 60.154598 3.951491 11.106341 -10.588447 24.507909 6.764033 -18.653932 -2.940116 8.356918 
-1.747301 0.237189 0.990419 96.176672 0.173628 89.235578 0.572515 0.373630 -0.859822 -0.742077 -9.710438 7.171723 5.667935 13.601751 -13.939734 0.000000 -0.000000 0.000000 0.707622 -1.341357 -5.056597 0.413611 -0.095903 14.718582 0.943015 -11.979959 -14.307243 0.000000 -0.000000 0.000000 3.433270 -5.581329 6.739911 0.494116 -5.891412 -6.514419 -1.443198 0.654162 -0.963897 -2.935045 -12.170032 8.241416 5.108660 -0.869182 -0.335198 -27.557357 9.120856 -0.158340 -52.361737 1.943064 4.491341 1.010009 -36.633111 20.985853 -1.249992 4.898283 -3.277663 23.709285 2.728399 6.704774 60.397791 4.002276 11.132566 -10.389632 25.136516 7.184420 -18.514381 -3.001344 8.387966 
-1.746321 0.237418 0.990194 95.961143 0.233324 89.257984 0.639084 0.516190 -0.838887 -0.754050 -9.520277 7.270284 5.590818 13.507595 -14.138869 0.000000 -0.000000 0.000000 0.764014 -1.240090 -5.041475 0.379254 -0.161606 14.745847 1.014267 -11.805341 -14.402673 0.000000 -0.000000 0.000000 3.239616 -5.296414 6.750924 0.628606 -5.723548 -6.188984 -1.278815 0.442691 -1.077475 -2.619398 -12.137595 7.832000 4.994886 -1.447431 -0.307048 -27.471897 9.026579 -0.149314 -52.782481 1.864827 4.642499 1.249852 -35.684565 20.834927 -1.535221 4.880172 -2.752316 23.739296 2.342667 6.186529 60.252659 3.811217 11.324167 -10.206220 25.893359 7.564937 -18.290892 -2.908227 8.234625 
-1.745086 0.237518 0.989557 95.616782 0.282537 89.226797 0.720097 0.620597 -0.587056 -0.772461 -9.327898 7.023357 5.446103 13.485509 -14.123224 0.000000 -0.000000 0.000000 0.799130 -1.117575 -4.927958 0.351847 -0.121772 14.688860 1.034596 -11.571674 -14.433810 0.000000 -0.000000 0.000000 3.007001 -4.881401 6.630874 0.727900 -5.416526 -5.721626 -1.082654 0.187444 -0.950918 -2.137104 -11.916121 6.972268 4.742900 -2.320451 0.113074 -27.242936 8.575238 0.117541 -53.589105 1.501465 4.842184 2.001618 -34.546811 20.329079 -2.035365 5.038647 -2.196773 23.588130 2.073375 5.576199 60.389196 3.657412 11.669973 -10.314194 26.689178 7.805493 -17.966876 -3.135901 7.678285 
-1.744249 0.238269 0.989541 95.379887 0.314869 89.268234 0.706115 0.639037 -0.486325 -0.763729 -9.237162 6.910154 5.487884 13.596762 -14.153933 0.000000 -0.000000 0.000000 0.776187 -1.017840 -4.888960 0.400280 0.016365 14.604665 1.100380 -11.578072 -14.456709 0.000000 -0.000000 0.000000 2.860670 -4.662495 6.526975 0.809450 -5.233720 -5.731617 -0.874647 -0.039314 -0.750880 -2.071558 -11.822673 6.798266 4.549135 -2.190903 0.283182 -27.331862 8.250113 0.407138 -53.909666 1.402076 4.820384 2.418665 -33.565976 19.833037 -2.154679 5.158709 -1.731028 23.590150 1.998908 5.458982 60.245053 3.570729 11.740223 -10.318722 27.216297 7.778801 -17.779956 -3.196241 7.557520 
-1.743629 0.239351 0.989277 95.132030 0.396585 89.329839 0.721861 0.842252 -0.547907 -0.765130 -9.130707 7.015508 5.436799 13.524598 -14.296966 0.000000 -0.000000 0.000000 0.815282 -0.949567 -4.941449 0.380894 0.077241 14.633158 1.096574 -11.422254 -14.500174 0.000000 -0.000000 0.000000 2.806623 -4.526607 6.633053 0.846528 -5.122563 -5.716416 -0.693929 -0.207761 -0.695295 -1.976413 -11.655398 6.331933 4.425379 -2.184483 0.357686 -27.306029 7.970783 0.393424 -54.291547 1.361517 4.699346 2.635654 -32.437787 19.527665 -2.522401 5.284317 -1.081247 23.448714 1.922503 5.253734 60.407868 3.574223 11.782222 -10.338307 27.555425 7.862745 -17.526044 -3.133307 7.436833 
-1.743546 0.240461 0.989148 94.919027 0.439198 89.396399 0.673196 0.872354 -0.618067 -0.748090 -9.015296 7.079535 5.489287 13.619566 -14.369720 0.000000 -0.000000 0.000000 0.785140 -0.835954 -5.052409 0.394361 0.128019 14.697218 1.160214 -11.372718 -14.508560 0.000000 -0.000000 0.000000 2.711875 -4.421736 6.769323 0.882794 -4.998551 -5.683138 -0.562131 -0.340221 -0.689406 -1.856058 -11.522135 6.034842 4.355027 -2.195611 0.389445 -27.283306 7.790628 0.490553 -54.460658 1.327802 4.733610 2.840630 -32.008703 19.363576 -2.656905 5.414838 -0.938145 23.420589 1.890922 5.091221 60.384781 3.499179 11.890853 -10.378195 27.650592 7.863187 -17.435790 -3.182654 7.394509 
